<svg width="193" height="47" viewBox="0 0 193 47" fill="none" xmlns="http://www.w3.org/2000/svg">
<g clip-path="url(#clip0_1008_4537)">
<path d="M0 0V47.0113H39.69V0H0ZM35.1002 42.4515H4.57839V4.54854H35.1002V42.4515Z" fill="#003595"/>
<path d="M30.5218 9.09705H9.15674V37.9029H30.5218V9.09705Z" fill="#76BC21"/>
<path d="M51.5229 17.595C52.2958 18.3172 53.2054 18.8797 54.1989 19.2498C55.2755 19.6502 56.4172 19.8495 57.5667 19.8376C58.7014 19.85 59.8283 19.6506 60.889 19.2498C61.8733 18.8777 62.7752 18.3187 63.5445 17.604C64.2982 16.8974 64.8984 16.0449 65.3081 15.0992C65.739 14.1042 65.956 13.0309 65.9452 11.9478C65.9588 10.8659 65.7416 9.79342 65.3081 8.80088C64.8915 7.86429 64.2921 7.01906 63.5445 6.31411C62.778 5.59369 61.8755 5.03125 60.889 4.65927C58.7332 3.87253 56.3661 3.87253 54.2103 4.65927C53.2176 5.03101 52.3083 5.59332 51.5342 6.31411C50.7825 7.01625 50.1839 7.86416 49.7752 8.8054C48.9408 10.8152 48.9408 13.0713 49.7752 15.0811C50.1795 16.0285 50.7742 16.8839 51.5229 17.595ZM53.1157 9.96514C53.3471 9.38666 53.6939 8.86067 54.1352 8.41882C54.5703 7.98639 55.0889 7.64574 55.6598 7.41732C56.2635 7.17931 56.9081 7.0603 57.5576 7.06692C58.2107 7.0609 58.8589 7.17986 59.4668 7.41732C60.0397 7.64189 60.559 7.98303 60.9914 8.41882C61.427 8.86299 61.7696 9.38857 61.9994 9.96514C62.482 11.2442 62.482 12.6536 61.9994 13.9327C61.772 14.5093 61.4285 15.0337 60.9898 15.4737C60.5512 15.9138 60.0267 16.2602 59.4486 16.4918C58.8447 16.729 58.2001 16.8473 57.5508 16.8399C56.8985 16.8467 56.2511 16.7285 55.6439 16.4918C55.0702 16.2675 54.5507 15.9255 54.1193 15.488C53.6796 15.0423 53.3358 14.5124 53.1089 13.9304C52.6265 12.6552 52.6265 11.2494 53.1089 9.97418L53.1157 9.96514Z" fill="#003595"/>
<path d="M82.0743 4.32251H78.3242L74.2965 10.4897H71.7433V4.32251H68.2117V19.5777H71.7433V13.4309H74.1918L78.1922 19.5777H82.2267L77.0567 11.6901L82.0743 4.32251Z" fill="#003595"/>
<path d="M96.7173 6.30507C95.9508 5.58466 95.0482 5.02222 94.0617 4.65024C91.9059 3.8635 89.5388 3.8635 87.383 4.65024C86.3903 5.02198 85.481 5.58429 84.707 6.30507C83.9518 7.00921 83.3507 7.86034 82.9411 8.80541C82.1067 10.8152 82.1067 13.0713 82.9411 15.0811C83.3482 16.0267 83.9452 16.8798 84.6956 17.5882C85.4685 18.3104 86.3781 18.8729 87.3716 19.2431C88.4482 19.6434 89.59 19.8427 90.7394 19.8309C91.8741 19.8432 93.0011 19.6438 94.0617 19.2431C95.046 18.8709 95.948 18.3119 96.7173 17.5973C97.471 16.8906 98.0711 16.0382 98.4808 15.0924C98.9117 14.0975 99.1287 13.0241 99.118 11.941C99.1315 10.8591 98.9143 9.78665 98.4808 8.79411C98.0645 7.85671 97.465 7.01069 96.7173 6.30507ZM95.1585 13.9327C94.9319 14.5087 94.5893 15.0327 94.1519 15.4727C93.7145 15.9127 93.1914 16.2595 92.6145 16.4918C92.0106 16.729 91.366 16.8473 90.7167 16.8399C90.0644 16.8467 89.417 16.7285 88.8098 16.4918C88.2361 16.2675 87.7166 15.9255 87.2851 15.488C86.8455 15.0423 86.5017 14.5124 86.2748 13.9304C85.7924 12.6552 85.7924 11.2494 86.2748 9.9742C86.5062 9.39572 86.8529 8.86972 87.2942 8.42787C87.7294 7.99543 88.248 7.65479 88.8189 7.42638C89.4226 7.18837 90.0672 7.06936 90.7167 7.07597C91.3698 7.06995 92.018 7.18892 92.6258 7.42638C93.1988 7.65095 93.7181 7.99208 94.1505 8.42787C94.5861 8.87204 94.9287 9.39762 95.1585 9.9742C95.6411 11.2533 95.6411 12.6627 95.1585 13.9417V13.9327Z" fill="#003595"/>
<path d="M104.973 13.3224H111.95V19.5777H115.502V4.32251H111.95V10.336H104.973V4.32251H101.421V19.5777H104.973V13.3224Z" fill="#003595"/>
<path d="M132.985 19.5777V4.32251H129.43V10.336H122.456V4.32251H118.904V19.5777H122.456V13.3224H129.43V19.5777H132.985Z" fill="#003595"/>
<path d="M155.117 4.32251H151.585V19.5777H155.117V4.32251Z" fill="#003595"/>
<path d="M148.122 10.5666C147.111 9.74669 145.678 9.33599 143.821 9.33448H139.916V4.32251H136.387V19.5777H143.318C145.29 19.5777 146.836 19.1256 147.956 18.2213C149.075 17.317 149.635 15.9945 149.635 14.2538C149.635 12.6155 149.131 11.3865 148.122 10.5666ZM145.275 16.2861C144.747 16.7383 144.03 16.9644 143.125 16.9644H139.916V11.9479H143.12C144.042 11.9479 144.761 12.1332 145.282 12.5062C145.803 12.8793 146.058 13.4829 146.058 14.3148C146.058 15.1467 145.796 15.8363 145.275 16.2861Z" fill="#003595"/>
<path d="M169.18 19.5777H172.686V4.32251H169.353L162.028 14.2583V4.32251H158.496V19.5777H161.852L169.18 9.66229V19.5777Z" fill="#003595"/>
<path d="M162.369 2.47552C163.047 3.05727 164.118 3.3474 165.582 3.34589C167.046 3.34438 168.113 3.05426 168.784 2.47552C169.471 1.89376 169.822 1.07238 169.837 0.0113525H167.402C167.412 0.23222 167.373 0.452483 167.29 0.65751C167.207 0.862537 167.081 1.04763 166.92 1.20048C166.539 1.49313 166.063 1.63635 165.582 1.60289C164.975 1.60289 164.525 1.46875 164.233 1.20048C164.075 1.04589 163.951 0.860281 163.87 0.655523C163.788 0.450765 163.751 0.231368 163.759 0.0113525H161.327C161.34 1.07087 161.688 1.89226 162.369 2.47552Z" fill="#003595"/>
<path d="M64.0428 27.0199H60.2927L56.265 33.1871H53.7118V27.0199H50.1802V42.2751H53.7118V36.1283H56.1603L60.1607 42.2751H64.1952L59.0252 34.3875L64.0428 27.0199Z" fill="#003595"/>
<path d="M78.6859 29.0026C77.9198 28.2806 77.0172 27.7166 76.0303 27.3432C73.8745 26.5565 71.5074 26.5565 69.3516 27.3432C68.3589 27.715 67.4496 28.2773 66.6756 28.9981C65.9189 29.7036 65.3177 30.5572 64.9098 31.5052C64.0753 33.5149 64.0753 35.7711 64.9098 37.7809C65.3163 38.7261 65.9134 39.5785 66.6642 40.2858C67.4365 41.0093 68.3462 41.5727 69.3402 41.9428C70.4168 42.3432 71.5586 42.5425 72.708 42.5306C73.8427 42.543 74.9697 42.3436 76.0303 41.9428C77.0146 41.5707 77.9166 41.0117 78.6859 40.2971C79.4398 39.59 80.0406 38.7377 80.4517 37.7922C80.8815 36.7969 81.0985 35.7238 81.0889 34.6408C81.105 33.5846 80.8996 32.5367 80.4859 31.5637C80.0722 30.5907 79.4592 29.7139 78.6859 28.989V29.0026ZM77.1271 36.6302C76.8972 37.2094 76.5503 37.7357 76.1077 38.1765C75.6735 38.6106 75.1547 38.9521 74.5831 39.1803C73.9792 39.4175 73.3346 39.5358 72.6853 39.5284C72.033 39.5352 71.3856 39.4169 70.7784 39.1803C70.2048 38.956 69.6852 38.6139 69.2538 38.1765C68.8153 37.7303 68.4723 37.2004 68.2457 36.6189C67.7603 35.3442 67.7603 33.9373 68.2457 32.6627C68.4725 32.0882 68.8148 31.5657 69.2519 31.1272C69.6889 30.6887 70.2115 30.3435 70.7875 30.1126C71.3917 29.8766 72.0361 29.7584 72.6853 29.7644C73.3382 29.7588 73.9862 29.877 74.5945 30.1126C75.1671 30.3388 75.6863 30.6806 76.1191 31.1163C76.5547 31.5605 76.8973 32.0861 77.1271 32.6627C77.6097 33.9417 77.6097 35.3511 77.1271 36.6302Z" fill="#003595"/>
<path d="M93.9183 33.0334H86.9415V27.0199H83.3894V42.2751H86.9415V36.0198H93.9183V42.2751H97.4727V27.0199H93.9183V33.0334Z" fill="#003595"/>
<path d="M99.2932 29.8978H104.186V42.2751H107.695V29.8978H112.607V27.0199H99.2932V29.8978Z" fill="#003595"/>
<path d="M117.937 36.9557V27.0199H114.405V42.2751H117.761L125.089 32.3597V42.2751H128.598V27.0199H125.264L117.937 36.9557Z" fill="#003595"/>
<path d="M142.503 33.0334H135.529V27.0199H131.977V42.2751H135.529V36.0198H142.503V42.2751H146.058V27.0199H142.503V33.0334Z" fill="#003595"/>
<path d="M152.989 35.9112H160.118V33.1645H152.989V29.8526H161.063V27.0199H149.46V42.2751H161.347V39.4425H152.989V35.9112Z" fill="#003595"/>
<path d="M174.311 33.0334H167.334V27.0199H163.782V42.2751H167.334V36.0198H174.311V42.2751H177.863V27.0199H174.311V33.0334Z" fill="#003595"/>
<path d="M192.998 27.0199H179.684V29.8978H184.576V42.2751H188.085V29.8978H192.998V27.0199Z" fill="#003595"/>
</g>
<defs>
<clipPath id="clip0_1008_4537">
<rect width="193" height="47" fill="white"/>
</clipPath>
</defs>
</svg>
